<svg xmlns:xlink="http://www.w3.org/1999/xlink" width="142" height="142" viewBox="0 0 142 142" fill="none" xmlns="http://www.w3.org/2000/svg" class="styles_circles___YFtV"><path d="M80.5401 3.92485L83.3167 5.48241C86.3051 7.15875 89.666 8.0593 93.0922 8.10174L96.2756 8.14117C103.069 8.22532 109.33 11.8397 112.8 17.6813L114.425 20.4185C116.175 23.3644 118.636 25.8248 121.582 27.5746L124.319 29.2005C130.16 32.6703 133.775 38.9305 133.859 45.7244L133.898 48.9078C133.941 52.334 134.841 55.6949 136.518 58.6833L138.075 61.4599C141.399 67.3857 141.399 74.6144 138.075 80.5401L136.518 83.3168C134.841 86.3051 133.941 89.666 133.898 93.0922L133.859 96.2756C133.775 103.069 130.16 109.33 124.319 112.8L121.582 114.425C118.636 116.175 116.175 118.636 114.425 121.582L112.8 124.319C109.33 130.16 103.069 133.775 96.2756 133.859L93.0922 133.898C89.666 133.941 86.3051 134.841 83.3167 136.518L80.5401 138.075C74.6144 141.399 67.3856 141.399 61.4599 138.075L58.6833 136.518C55.6949 134.841 52.334 133.941 48.9078 133.898L45.7244 133.859C38.9305 133.775 32.6703 130.16 29.2005 124.319L27.5746 121.582C25.8248 118.636 23.3644 116.175 20.4185 114.425L17.6813 112.8C11.8397 109.33 8.22531 103.069 8.14116 96.2756L8.10173 93.0922C8.05929 89.666 7.15874 86.3051 5.48241 83.3168L3.92484 80.5401C0.600782 74.6144 0.60078 67.3857 3.92484 61.4599L5.4824 58.6833C7.15874 55.6949 8.05929 52.334 8.10173 48.9078L8.14116 45.7244C8.22531 38.9305 11.8397 32.6703 17.6813 29.2005L20.4185 27.5746C23.3644 25.8248 25.8248 23.3644 27.5746 20.4185L29.2004 17.6813C32.6703 11.8397 38.9305 8.22532 45.7244 8.14117L48.9078 8.10174C52.334 8.0593 55.6949 7.15875 58.6833 5.48241L61.4599 3.92485C67.3856 0.600792 74.6144 0.600789 80.5401 3.92485Z" stroke="#FFFFFF" fill="none"></path><path d="M97.5755 8.67953L99.8544 10.9027C102.307 13.2953 105.32 15.0351 108.619 15.9628L111.684 16.8248C118.224 18.6645 123.336 23.776 125.175 30.3166L126.037 33.3813C126.965 36.6798 128.705 39.6931 131.097 42.1457L133.321 44.4247C138.065 49.2881 139.936 56.2705 138.259 62.8547L137.473 65.9399C136.627 69.2603 136.627 72.7397 137.473 76.0601L138.259 79.1453C139.936 85.7295 138.065 92.7119 133.321 97.5754L131.097 99.8543C128.705 102.307 126.965 105.32 126.037 108.619L125.175 111.683C123.336 118.224 118.224 123.336 111.684 125.175L108.619 126.037C105.32 126.965 102.307 128.705 99.8544 131.097L97.5755 133.32C92.712 138.065 85.7296 139.936 79.1455 138.259L76.0603 137.473C72.7399 136.627 69.2604 136.627 65.94 137.473L62.8548 138.259C56.2707 139.936 49.2883 138.065 44.4248 133.32L42.1459 131.097C39.6932 128.705 36.6799 126.965 33.3815 126.037L30.3167 125.175C23.7761 123.335 18.6646 118.224 16.825 111.683L15.963 108.619C15.0352 105.32 13.2955 102.307 10.9028 99.8543L8.67968 97.5754C3.93518 92.7119 2.06425 85.7295 3.74135 79.1453L4.5272 76.0601C5.37297 72.7397 5.37297 69.2603 4.5272 65.9399L3.74136 62.8547C2.06425 56.2706 3.93518 49.2881 8.67967 44.4246L10.9028 42.1457C13.2955 39.6931 15.0352 36.6798 15.963 33.3813L16.825 30.3166C18.6646 23.776 23.7761 18.6645 30.3167 16.8248L33.3815 15.9628C36.6799 15.0351 39.6932 13.2953 42.1459 10.9027L44.4248 8.67954C49.2883 3.93505 56.2707 2.06411 62.8548 3.74121L65.94 4.52706C69.2604 5.37283 72.7399 5.37283 76.0603 4.52706L79.1454 3.74121C85.7296 2.06411 92.712 3.93504 97.5755 8.67953Z" stroke="#FFFFFF" fill="none"></path></svg>